<svg height="512" viewBox="0 0 64 64" width="512" xmlns="http://www.w3.org/2000/svg"><g id="Elearning-monitor-online-screen-education"><path d="m61 48h-58v-30a2 2 0 0 1 2-2h54a2 2 0 0 1 2 2z" fill="#e9e9ea"/><path d="m61 48v2a2.006 2.006 0 0 1 -2 2h-54a2.006 2.006 0 0 1 -2-2v-2z" fill="#acabb1"/><path d="m22 57h20v4h-20z" fill="#acabb1"/><path d="m29 52h6v5h-6z" fill="#787680"/><path d="m6 19h52v26h-52z" fill="#2488ff"/><path d="m28 43v2h-18v-2a4 4 0 0 1 4-4h10a4 4 0 0 1 4 4z" fill="#3e3d42"/><path d="m35 16h-6l.63-4.6a4.981 4.981 0 0 0 4.74 0z" fill="#57565c"/><circle cx="32" cy="8" fill="#898890" r="5"/><circle cx="32" cy="8" fill="#ff5023" r="2"/><path d="m22 39-3 4-3-4z" fill="#fff"/><path d="m21.29 35.44.71 3.56h-6l.71-3.56a4.962 4.962 0 0 0 4.58 0z" fill="#f0d0b4"/><path d="m24 27h-13a5 5 0 0 1 5-5 4.949 4.949 0 0 1 3.1 1.11 3.824 3.824 0 0 1 .9-.11 4 4 0 0 1 4 4z" fill="#6a563d"/><path d="m54 23v16h-20v-3l-4-2 4-2.56v-8.44z" fill="#ffda44"/><circle cx="32" cy="8" fill="#d80027" r="2"/><path d="m14 27h10a0 0 0 0 1 0 0v4a5 5 0 0 1 -5 5 5 5 0 0 1 -5-5v-4a0 0 0 0 1 0 0z" fill="#f5e0cd"/><path d="m59 15h-23.16l-.37-2.11a6 6 0 1 0 -6.94 0l-.37 2.11h-23.16a3.009 3.009 0 0 0 -3 3v32a3.009 3.009 0 0 0 3 3h23v3h-6a1 1 0 0 0 -1 1v4a1 1 0 0 0 1 1h20a1 1 0 0 0 1-1v-4a1 1 0 0 0 -1-1h-6v-3h23a3.009 3.009 0 0 0 3-3v-32a3.009 3.009 0 0 0 -3-3zm-31-7a4 4 0 1 1 4 4 4 4 0 0 1 -4-4zm5.81 7h-3.62l.21-1.22a5.928 5.928 0 0 0 3.2 0zm7.19 43v2h-18v-2zm-11-2v-3h4v3zm30-6a1 1 0 0 1 -1 1h-54a1 1 0 0 1 -1-1v-1h56zm0-3h-56v-29a1 1 0 0 1 1-1h54a1 1 0 0 1 1 1z"/><path d="m32 11a3 3 0 1 0 -3-3 3 3 0 0 0 3 3zm0-4a1 1 0 1 1 -1 1 1 1 0 0 1 1-1z"/><path d="m58 18h-52a1 1 0 0 0 -1 1v26a1 1 0 0 0 1 1h52a1 1 0 0 0 1-1v-26a1 1 0 0 0 -1-1zm-31 26h-16v-1a3.009 3.009 0 0 1 3-3h1.5l2.7 3.6a1 1 0 0 0 1.6 0l2.7-3.6h1.5a3.009 3.009 0 0 1 3 3zm-12-16h8v3a4 4 0 0 1 -8 0zm-2.87-2a3.966 3.966 0 0 1 6.35-2.11 1 1 0 0 0 .85.19 3.3 3.3 0 0 1 .67-.08 3.014 3.014 0 0 1 2.83 2zm5.09 12 .24-1.21a5.752 5.752 0 0 0 3.08 0l.24 1.21zm2.78 2-1 1.33-1-1.33zm37 4h-28v-1a5 5 0 0 0 -5-5h-1.18l-.41-2.07a6 6 0 0 0 2.59-4.93v-4a5 5 0 0 0 -5-5 4.865 4.865 0 0 0 -.65.05 5.855 5.855 0 0 0 -3.35-1.05 6 6 0 0 0 -6 6 1 1 0 0 0 1 1h2v3a6 6 0 0 0 2.59 4.93l-.41 2.07h-1.18a5 5 0 0 0 -5 5v1h-2v-24h50z"/><path d="m54 22h-20a1 1 0 0 0 -1 1v7.9l-3.54 2.26a.995.995 0 0 0 .09 1.73l3.45 1.73v2.38a1 1 0 0 0 1 1h20a1 1 0 0 0 1-1v-16a1 1 0 0 0 -1-1zm-1 16h-18v-2a.977.977 0 0 0 -.55-.89l-2.43-1.22 2.52-1.6a1.015 1.015 0 0 0 .46-.85v-7.44h18z"/><path d="m37 26h6v2h-6z"/><path d="m45 26h6v2h-6z"/><path d="m37 30h2v2h-2z"/><path d="m41 30h10v2h-10z"/><path d="m37 34h4v2h-4z"/><path d="m43 34h8v2h-8z"/></g></svg>