<svg height="480pt" viewBox="-112 0 480 480" width="480pt" xmlns="http://www.w3.org/2000/svg"><path d="m24 8h208c8.835938 0 16 7.164062 16 16v432c0 8.835938-7.164062 16-16 16h-208c-8.835938 0-16-7.164062-16-16v-432c0-8.835938 7.164062-16 16-16zm0 0" fill="#dce1ea"/><path d="m248 200h-24c-8.835938 0-16-7.164062-16-16h-160c0 8.835938-7.164062 16-16 16h-24v-176c0-8.835938 7.164062-16 16-16h208c8.835938 0 16 7.164062 16 16zm0 0" fill="#e38100"/><path d="m40 88h176v64h-176zm0 0" fill="#dce1ea"/><path d="m40 40h176v56h-176zm0 0" fill="#bec3d1"/><path d="m128 296c13.253906 0 24 10.746094 24 24s-10.746094 24-24 24-24-10.746094-24-24 10.746094-24 24-24zm0 0" fill="#bec3d1"/><path d="m128 376c8.835938 0 16 7.164062 16 16s-7.164062 16-16 16-16-7.164062-16-16 7.164062-16 16-16zm0 0" fill="#9196a9"/><path d="m256 24c0-13.253906-10.746094-24-24-24h-208c-13.253906 0-24 10.746094-24 24v432c0 13.253906 10.746094 24 24 24h208c13.253906 0 24-10.746094 24-24zm-16 408h-48v-160h48zm-224 0v-160h48v160zm64-160h96v160h-96zm-64-16v-48h16c10.167969-.011719 19.230469-6.417969 22.632812-16h146.734376c3.402343 9.582031 12.464843 15.988281 22.632812 16h16v48zm8-240h208c4.417969 0 8 3.582031 8 8v168h-16c-4.417969 0-8-3.582031-8-8s-3.582031-8-8-8h-160c-4.417969 0-8 3.582031-8 8s-3.582031 8-8 8h-16v-168c0-4.417969 3.582031-8 8-8zm208 448h-208c-4.417969 0-8-3.582031-8-8v-8h224v8c0 4.417969-3.582031 8-8 8zm0 0"/><path d="m128 288c-17.671875 0-32 14.328125-32 32s14.328125 32 32 32 32-14.328125 32-32-14.328125-32-32-32zm0 48c-8.835938 0-16-7.164062-16-16s7.164062-16 16-16 16 7.164062 16 16-7.164062 16-16 16zm0 0"/><path d="m128 368c-13.253906 0-24 10.746094-24 24s10.746094 24 24 24 24-10.746094 24-24-10.746094-24-24-24zm0 32c-4.417969 0-8-3.582031-8-8s3.582031-8 8-8 8 3.582031 8 8-3.582031 8-8 8zm0 0"/><path d="m168 224h32v16h-32zm0 0"/><path d="m56 224h32v16h-32zm0 0"/><path d="m106.320312 226.320312c-1.460937 1.53125-2.289062 3.5625-2.320312 5.679688.011719 1.046875.230469 2.078125.640625 3.039062.40625.96875.976563 1.863282 1.679687 2.640626 3.15625 3.09375 8.203126 3.09375 11.359376 0 .730468-.777344 1.324218-1.667969 1.761718-2.640626.382813-.964843.574219-2 .558594-3.039062.019531-3.25-1.929688-6.1875-4.933594-7.433594-3-1.246094-6.457031-.554687-8.746094 1.753906zm0 0"/><path d="m138.320312 226.320312c-1.460937 1.53125-2.289062 3.5625-2.320312 5.679688-.027344 1.050781.191406 2.089844.640625 3.039062.40625.96875.976563 1.863282 1.679687 2.640626 3.15625 3.09375 8.203126 3.09375 11.359376 0 .703124-.777344 1.273437-1.671876 1.679687-2.640626.449219-.949218.667969-1.988281.640625-3.039062.019531-3.25-1.929688-6.1875-4.933594-7.433594-3-1.246094-6.457031-.554687-8.746094 1.753906zm0 0"/><path d="m40 160h176c4.417969 0 8-3.582031 8-8v-112c0-4.417969-3.582031-8-8-8h-176c-4.417969 0-8 3.582031-8 8v112c0 4.417969 3.582031 8 8 8zm168-16h-160v-40h160zm-160-96h160v40h-160zm0 0"/></svg>